<svg width="343" height="86" viewBox="0 0 343 86" fill="none" xmlns="http://www.w3.org/2000/svg">
<g clip-path="url(#clip0_4465_12222)">
<path d="M0 0.000610352L85.8113 86.0006H343V0.000610352H0Z" fill="#005EB8"/>
<path d="M249.241 61.0383L246.595 65.3517C249.048 67.2036 252.665 68.171 256.355 68.171C261.111 68.171 265.657 65.9681 265.657 60.69C265.657 57.0621 262.946 55.0477 258.639 54.3047L257.717 54.144C255.261 53.7171 253.154 53.3853 253.154 51.9909C253.154 50.6742 254.627 49.9949 256.64 49.9949C259.239 49.9949 261.409 50.9134 262.996 51.8634L265.356 47.523C261.995 45.6685 259.398 45.1786 256.403 45.1786C251.22 45.1786 247.544 47.9037 247.465 52.2118C247.387 56.2064 249.858 58.267 254.421 58.9804L255.53 59.1541C258.432 59.5977 259.92 59.9784 259.92 61.3108C259.92 62.6868 258.397 63.3696 256.403 63.3696C253.282 63.3696 250.935 62.1961 249.241 61.0383ZM235.853 50.3764C237.724 50.3764 238.927 51.1046 238.927 52.6711C238.927 54.2567 237.757 55.0041 235.853 55.0041H231.56V50.3764H235.853ZM235.919 45.5742H226.268V67.7589H231.56V59.4545H232.337L238.184 67.7589H244.49L238.119 59.2991C242.097 58.6625 244.317 56.1907 244.317 52.6719C244.317 48.2992 241.401 45.5742 235.919 45.5742ZM222.581 45.5742H205.656V67.7589H222.646V62.9924H210.95V58.935H221.901V54.179H210.95V50.3441H222.581V45.575L222.581 45.5742ZM194.204 50.3764C196.102 50.3764 197.276 51.2793 197.276 52.9732C197.276 54.6539 196.102 55.5428 194.204 55.5428H190.067V50.3764H194.204ZM194.279 45.5742H184.773V67.7589H190.067V60.2621H194.329C199.765 60.2621 202.663 57.3502 202.663 52.974C202.663 48.5193 199.765 45.5742 194.279 45.5742ZM166.838 45.575H161.531V58.8075C161.531 64.8749 165.193 68.1728 171.228 68.1728C177.262 68.1728 180.941 64.8741 180.941 58.8075V45.575H175.634V58.6005C175.634 61.6434 173.893 63.0876 171.228 63.0876C168.585 63.0876 166.839 61.6434 166.839 58.6005L166.838 45.575ZM152.716 61.3125C152.716 62.6886 151.194 63.3714 149.198 63.3714C146.076 63.3714 143.729 62.1987 142.035 61.041L139.389 65.3543C141.842 67.2062 145.459 68.1737 149.149 68.1737C153.902 68.1737 158.451 65.9707 158.451 60.6926C158.451 57.0647 155.74 55.0504 151.433 54.3073L150.511 54.1467C148.058 53.7197 145.948 53.3879 145.948 51.9935C145.948 50.6768 147.422 49.9975 149.434 49.9975C152.033 49.9975 154.203 50.916 155.789 51.866L158.15 47.5256C154.789 45.6711 152.192 45.1812 149.198 45.1812C144.015 45.1812 140.338 47.9063 140.259 52.2144C140.181 56.209 142.652 58.2696 147.215 58.983L148.324 59.1567C151.226 59.6003 152.716 59.9801 152.716 61.3125ZM156.376 29.1521C156.376 32.7311 154.396 35.3471 150.274 35.3471H146.187V22.9546H150.274C154.397 22.9546 156.376 25.519 156.376 29.1521ZM161.904 29.1521C161.904 22.4621 157.328 18.0572 150.386 18.0572H140.895V40.2419H150.386C157.328 40.2419 161.904 35.836 161.904 29.1521ZM181.98 29.1504C181.98 32.952 179.413 35.5846 175.799 35.5846C172.186 35.5846 169.621 32.952 169.621 29.1504C169.621 25.3487 172.186 22.7136 175.799 22.7136C179.413 22.7136 181.98 25.3461 181.98 29.1504ZM187.495 29.1504C187.495 22.5259 182.644 17.6424 175.799 17.6424C168.955 17.6424 164.106 22.5268 164.106 29.1504C164.106 35.774 168.955 40.6531 175.799 40.6531C182.644 40.6531 187.495 35.7723 187.495 29.1504ZM190.615 40.2419H207.064V35.3279H195.906V18.058H190.614V40.2428L190.615 40.2419ZM225.597 29.1504C225.597 32.952 223.03 35.5846 219.416 35.5846C215.802 35.5846 213.238 32.952 213.238 29.1504C213.238 25.3487 215.802 22.7136 219.416 22.7136C223.03 22.7136 225.597 25.3461 225.597 29.1504ZM231.112 29.1504C231.112 22.5259 226.261 17.6424 219.416 17.6424C212.572 17.6424 207.723 22.5268 207.723 29.1504C207.723 35.774 212.572 40.6531 219.416 40.6531C226.261 40.6531 231.112 35.7723 231.112 29.1504ZM254.024 40.2419H259.314V18.0572H251.805L246.781 32.1435L241.725 18.0572H234.231V40.2419H239.526V25.1086L243.961 38.1507H249.587L254.025 25.0624L254.024 40.2419ZM263.359 40.241H268.651V18.0563H263.359V40.241ZM274.168 45.5768H268.876V67.7615H274.168V45.5768ZM282.931 22.9712H289.493V18.0572H271.063V22.9712H277.639V40.2419H282.931V22.9712ZM283.033 67.7607H289.693L280.374 56.3994L288.978 45.5768H282.465L274.252 56.753L283.033 67.7607ZM291.912 40.241H297.204V18.0563H291.912V40.241ZM297.229 45.5768H291.934V67.7615H297.229V45.5768Z" fill="white"/>
<path d="M83.2405 31.2381H78.5718L92.0444 44.7141H96.7131L83.2405 31.2381ZM87.6499 26.8217H82.9829L92.0103 35.7985H96.686L87.6499 26.8217ZM92.0671 22.4115H87.394L100.824 35.7985H105.498L92.0671 22.4115ZM114.326 35.7985L96.486 17.9899H91.8121L109.656 35.7985H114.326ZM118.485 35.7985H123.155L101.742 14.4179H97.0719L118.485 35.7985ZM131.488 45.1332C131.488 44.4539 131.22 43.8244 130.738 43.3651L125.748 38.3725H121.034L126.884 44.2147H109.204L118.242 53.2543H96.3621L93.7889 50.682H111.509L102.375 41.5682H120.035L116.862 38.3716H94.4761L103.496 47.3973H90.5085L78.4208 35.2964H73.7285L109.766 71.3938H114.507L99.7446 56.6351H121.96C122.948 56.6351 123.751 55.8266 123.751 54.8312C123.751 54.358 123.558 53.8969 123.222 53.5695L117.25 47.5859H129.027C130.383 47.5859 131.487 46.4848 131.487 45.1324" fill="white"/>
</g>
<defs>
<clipPath id="clip0_4465_12222">
<rect width="343" height="86" fill="white"/>
</clipPath>
</defs>
</svg>
